<svg width="170" height="32" viewBox="0 0 170 32" fill="none" xmlns="http://www.w3.org/2000/svg">
<g clip-path="url(#clip0_865_3673)">
<path d="M20.5826 24.5413H15.0424V18.9892H20.5403C22.7013 18.9892 23.8771 19.959 23.8771 21.7173C23.8771 23.6461 22.6165 24.5413 20.5826 24.5413ZM15.0424 7.54403H19.6822C21.5148 7.54403 22.9025 8.27934 22.9025 10.3254C22.9025 12.0091 21.642 12.8617 19.4809 12.8617H15.0424V7.54403ZM26.8432 15.2061C28.8771 14.4708 30.7097 12.2542 30.7097 9.43025C30.7097 3.78226 27.0869 0.990234 20.572 0.990234H7.1822V12.851H0C1.69492 16.9964 4.27966 18.3818 7.1822 19.2023V30.9672H20.9004C27.7013 30.9672 31.7691 27.8129 31.7691 22.1968C31.7691 18.3498 29.1208 15.8135 26.8432 15.1955" fill="#00A8E7"/>
<path d="M33.9414 30.9672H55.4774V24.2109H41.8016V19.3835H53.8567V12.8723H41.8016V7.74651H55.4774V0.990234H33.9414V30.9672Z" fill="#00A8E7"/>
<path d="M65.6157 9.87771C65.6157 8.32185 67.1623 7.74639 69.5669 7.74639C72.6178 7.74639 75.9123 8.7268 78.2428 10.5278L82.2364 4.99699C78.9419 2.08775 74.6623 0.489258 69.7788 0.489258C62.978 0.489258 57.7237 4.00593 57.7237 9.90968C57.7237 21.3335 75.1919 18.1046 75.1919 21.9942C75.1919 23.6354 73.6453 24.2428 70.997 24.2428C67.1729 24.2428 63.9949 22.8894 61.1453 21.0032L57.0352 26.5339C60.4991 29.5284 65.425 31.4893 70.9547 31.4893C78.3593 31.4893 83.0415 28.0046 83.0415 21.909C83.0415 10.3573 65.6157 13.6395 65.6157 9.86705" fill="#00A8E7"/>
<path d="M93.1766 0.990234H85.3164V30.9672H93.1766V0.990234Z" fill="#00A8E7"/>
<path d="M143.327 0.990234H123.751H119.1H115.117L105.837 15.3233L104.693 17.8276V12.8297L104.778 0.990234H96.918V30.9672H103.433L110.064 21.1845L115.604 30.9672H124.683L114.831 14.8331L119.397 7.74651H127.289V30.9672H135.181V7.74651H143.327V0.990234Z" fill="#00A8E7"/>
<path d="M149.62 20.3213L153.529 10.1336L156.644 18.3178C154.239 19.554 151.728 20.0975 149.62 20.3213ZM170.002 30.9672L165.351 19.586C167.057 17.7744 168.54 15.5578 169.663 12.8404H162.597L157.756 0.990234H149.292L137.004 30.9672H145.553L147.142 26.8218C147.142 26.8218 147.205 26.8218 147.237 26.8218C150.69 26.8218 154.928 26.1611 158.911 24.2536L161.464 30.9672H170.012H170.002Z" fill="#00A8E7"/>
</g>
<defs>
<clipPath id="clip0_865_3673">
<rect width="170" height="31" fill="white" transform="translate(0 0.5)"/>
</clipPath>
</defs>
</svg>
