<svg width="352" height="46" viewBox="0 0 352 46" fill="none" xmlns="http://www.w3.org/2000/svg">
<path d="M175.506 9.92725C181.118 9.92725 181.505 9.92725 183.246 14.6019L188.858 30.7685L194.276 14.6019C195.824 9.92725 195.824 9.92725 201.822 9.92725L191.954 35.8327C185.955 35.8327 185.955 36.2223 184.02 31.158L175.506 9.92725Z" fill="#004494"/>
<path d="M311.537 13.6277C316.374 13.6277 318.503 16.9389 318.503 20.4449V20.6397H304.571C304.571 14.0172 305.732 13.6277 311.537 13.6277ZM323.34 20.6397C323.34 14.4068 319.664 9.53735 311.924 9.53735C301.668 9.53735 299.153 15.7702 299.153 22.7822C299.153 29.5995 301.668 35.8324 311.924 35.8324H315.02H321.599C321.599 31.5473 321.599 31.5473 317.342 31.5473H311.73C306.893 31.5473 304.571 28.8204 304.571 25.1196H317.922C323.34 24.9248 323.34 24.9248 323.34 20.6397Z" fill="#004494"/>
<path d="M70.0484 20.4452H61.9214V31.3527H69.8549C77.0144 31.3527 77.0144 30.9632 77.0144 25.7042C77.0144 21.0295 73.5314 20.4452 70.0484 20.4452ZM69.6614 5.64205H61.7279V15.9653H69.8549C76.2404 15.9653 76.2404 15.7705 76.2404 11.0958C76.2404 8.17416 75.0794 5.64205 69.6614 5.64205ZM69.6614 35.8326H61.9214C56.5034 35.8326 56.5034 35.8326 56.5034 30.9632V24.9251V6.22638C56.5034 1.35693 56.5034 1.35693 61.9214 1.35693H69.4679C78.5624 1.35693 81.8519 5.25249 81.8519 10.3167C81.8519 13.8227 80.4974 16.7444 77.4014 17.5235C80.8844 18.4974 82.8194 22.3929 82.8194 25.8989C82.8194 30.9632 79.7234 35.8326 69.6614 35.8326Z" fill="#004494"/>
<path d="M89.3987 6.81056C87.4637 6.81056 86.3027 6.22623 86.3027 4.27845C86.3027 2.13589 87.4637 1.74634 89.3987 1.74634C91.1402 1.74634 92.4947 2.33067 92.4947 4.27845C92.4947 6.42101 91.3337 6.81056 89.3987 6.81056Z" fill="#004494"/>
<path d="M86.8833 31.158V9.92725C92.3013 9.92725 92.3013 9.92725 92.3013 14.4071V35.8327C86.8833 35.8327 86.8833 35.8327 86.8833 31.158Z" fill="#004494"/>
<path d="M235.104 6.81056C233.169 6.81056 232.008 6.22623 232.008 4.27845C232.008 2.13589 233.169 1.74634 235.104 1.74634C236.846 1.74634 238.2 2.33067 238.2 4.27845C238.007 6.42101 236.846 6.81056 235.104 6.81056Z" fill="#004494"/>
<path d="M232.589 31.158V9.92725C238.007 9.92725 238.007 9.92725 238.007 14.4071V35.8327C232.589 35.8327 232.589 35.8327 232.589 31.158Z" fill="#004494"/>
<path d="M97.5259 31.1578V1.74634C102.944 1.74634 102.944 1.74634 102.944 6.22623V35.8325C97.5259 35.8325 97.5259 35.8325 97.5259 31.1578Z" fill="#004494"/>
<path d="M120.359 14.0172C113.2 14.0172 113.2 14.0172 113.2 22.977C113.2 28.0413 114.167 31.742 120.359 31.742C127.519 31.742 127.519 31.742 127.519 22.977C127.519 17.718 126.164 14.0172 120.359 14.0172ZM121.907 36.2219C116.876 36.2219 114.167 34.4689 113.2 32.7159V42.0653V45.766C107.975 45.766 107.975 45.766 107.975 41.2862V13.6277V9.92691C112.039 9.92691 112.039 9.92691 112.039 13.6277C113.006 11.8747 115.715 9.53735 121.907 9.53735C130.421 9.53735 132.937 15.7702 132.937 22.7823C132.743 29.989 130.421 36.2219 121.907 36.2219Z" fill="#004494"/>
<path d="M146.481 14.4068C142.031 14.4068 142.031 15.5754 142.031 21.4188V35.8323C136.613 35.8323 136.613 35.8323 136.613 31.3524V9.92688C140.676 9.92688 140.676 9.92688 140.676 13.4329C141.644 11.6799 144.159 9.53733 149.771 9.7321C149.771 14.4068 149.771 14.4068 146.481 14.4068Z" fill="#004494"/>
<path d="M162.735 14.0172C155.382 14.0172 155.382 14.0172 155.382 22.7822C155.382 27.6517 156.737 31.5473 162.542 31.5473C169.895 31.5473 169.895 31.5473 169.895 22.7822C169.895 18.1076 168.734 14.0172 162.735 14.0172ZM162.735 36.0271C152.673 36.0271 150.158 29.5995 150.158 22.7822C150.158 15.965 152.867 9.53735 162.929 9.53735C172.991 9.53735 175.7 15.965 175.7 22.7822C175.506 29.7943 172.604 36.0271 162.735 36.0271Z" fill="#004494"/>
<path d="M221.946 31.1577V21.224C221.946 16.5494 221.172 13.8225 215.754 13.8225C209.175 13.8225 209.175 13.8225 209.175 21.224V35.8324C203.757 35.8324 203.757 35.8324 203.757 31.3525V9.92691C207.821 9.92691 207.821 9.92691 207.821 13.4329C208.788 11.6799 211.304 9.53735 217.302 9.53735C225.623 9.53735 227.364 14.4068 227.364 21.8084V35.8324C221.946 35.8324 221.946 35.8324 221.946 31.1577Z" fill="#004494"/>
<path d="M261.42 31.1577V21.224C261.42 16.5494 260.646 13.8225 255.228 13.8225C248.649 13.8225 248.649 13.8225 248.649 21.224V35.8324C243.231 35.8324 243.231 35.8324 243.231 31.3525V9.92691C247.295 9.92691 247.295 9.92691 247.295 13.4329C248.262 11.6799 250.778 9.53735 256.776 9.53735C265.097 9.53735 266.838 14.4068 266.838 21.8084V35.8324C261.42 35.8324 261.42 35.8324 261.42 31.1577Z" fill="#004494"/>
<path d="M345.592 31.1577V21.224C345.592 16.5494 344.818 13.8225 339.4 13.8225C332.821 13.8225 332.821 13.8225 332.821 21.224V35.6376C327.403 35.6376 327.403 35.6376 327.403 31.1577V9.92691C331.467 9.92691 331.467 9.92691 331.467 13.4329C332.434 11.6799 334.95 9.53735 340.948 9.53735C349.269 9.53735 351.01 14.4068 351.01 21.8084V35.8324C345.592 35.6376 345.592 35.6376 345.592 31.1577Z" fill="#004494"/>
<path d="M282.899 31.742C275.74 31.742 275.74 31.742 275.74 22.977C275.74 17.718 276.901 14.0172 282.706 14.0172C289.865 14.0172 289.865 14.0172 289.865 22.977C290.059 27.8465 289.091 31.742 282.899 31.742ZM295.283 13.4329V9.92691C291.22 9.92691 291.22 9.92691 291.22 13.6277C290.252 11.8747 287.543 9.53735 281.351 9.53735C272.837 9.53735 270.322 15.7702 270.322 22.7822C270.322 29.7943 272.644 36.0271 281.158 36.0271C286.189 36.0271 288.704 34.2741 289.865 32.5211V36.0271C289.865 41.6757 289.865 41.4809 283.286 41.4809H276.901C272.837 41.4809 272.837 41.6757 272.837 45.9608H283.286C293.348 45.9608 295.283 40.7018 295.283 35.8324V13.4329Z" fill="#004494"/>
<path d="M21.2871 20.8346C15.6756 20.8346 11.2251 16.3547 11.2251 10.7061C11.4186 5.25235 15.8691 0.772461 21.2871 0.772461C26.8986 0.772461 31.3491 5.25235 31.3491 10.9009C31.3491 16.3547 26.8986 20.8346 21.2871 20.8346Z" fill="#004494"/>
<path d="M41.9913 13.6279C41.2173 13.6279 41.2173 14.0175 41.2173 14.2123C39.6693 23.5616 31.1553 30.5736 21.4803 30.5736C11.8053 30.5736 3.29131 23.5616 1.74331 14.2123C1.74331 14.0175 1.74331 13.6279 1.16281 13.6279H0.775813C0.195312 13.6279 0.195312 13.8227 0.195312 14.2123V34.0796C0.195312 35.0535 0.582313 35.8326 1.54981 35.8326H21.2868H41.0238C42.1848 35.8326 42.3783 35.0535 42.3783 34.0796V14.2123C42.5718 13.8227 42.5718 13.6279 41.9913 13.6279Z" fill="#004494"/>
</svg>
