<?xml version="1.0" encoding="UTF-8"?>
<svg width="172px" height="39px" viewBox="0 0 172 39" version="1.1" xmlns="http://www.w3.org/2000/svg" xmlns:xlink="http://www.w3.org/1999/xlink">
    <!-- Generator: Sketch 56.3 (81716) - https://sketch.com -->
    <title>carspect-logo@3x</title>
    <desc>Created with Sketch.</desc>
    <defs>
        <polygon id="path-1" points="0.16662 0.0884536082 18.8334 0.0884536082 18.8334 15.1191642 0.16662 15.1191642"></polygon>
        <polygon id="path-3" points="0.0138 0.0595252577 20.2006258 0.0595252577 20.2006258 31.5618557 0.0138 31.5618557"></polygon>
        <polygon id="path-5" points="0 0.0928360825 18.90036 0.0928360825 18.90036 29.5977433 0 29.5977433"></polygon>
    </defs>
    <g id="Symbols" stroke="none" stroke-width="1" fill="none" fill-rule="evenodd">
        <g id="logo">
            <g id="carspect-logo">
                <g id="Group-3" transform="translate(153.000000, 0.112577)">
                    <mask id="mask-2" fill="white">
                        <use xlink:href="#path-1"></use>
                    </mask>
                    <g id="Clip-2"></g>
                    <path d="M13.83272,0.344546907 C13.49252,0.00299536082 12.93732,0.00299536082 12.59792,0.344546907 L10.11732,2.83632526 C9.77732,3.1778768 9.22192,3.1778768 8.88232,2.83632526 L6.40352,0.345552062 C6.06372,0.00400051546 5.50832,0.00400051546 5.16872,0.345552062 L0.42132,5.11521186 C0.08172,5.4567634 0.08172,6.01502629 0.42132,6.35657784 L8.87992,14.8630005 C9.22012,15.2045521 9.77552,15.2045521 10.11512,14.8630005 L18.57892,6.35657784 C18.91832,6.01502629 18.91832,5.4567634 18.57892,5.11521186 L13.83272,0.344546907 Z" id="Fill-1" fill="#7AB800" mask="url(#mask-2)"></path>
                </g>
                <path d="M128.9925,11.8235134 C129.1559,11.6566577 129.3813,11.5619722 129.6139,11.560967 L138.1313,11.5525237 C138.6117,11.5525237 139.0047,11.1579 139.0047,10.6748227 L139.0043,8.2660701 C139.0043,7.78299278 138.6117,7.38836907 138.1309,7.38836907 L127.7983,7.39319381 C127.5655,7.39419897 127.3405,7.48908557 127.1769,7.65594124 L122.7885,12.1624515 C122.6245,12.3285031 122.5323,12.555467 122.53388,12.789668 L122.53388,27.3179722 C122.5323,27.5519722 122.6245,27.7791371 122.7885,27.9449876 L127.1769,32.451699 C127.3405,32.6183536 127.5655,32.7132402 127.7983,32.7140443 L138.4941,32.7140443 C138.9747,32.7140443 139.3675,32.3198227 139.3675,31.8363433 L139.3675,29.4247763 C139.3675,28.9419 138.9747,28.5470753 138.4941,28.5470753 L129.6139,28.5468742 C129.3813,28.545668 129.1559,28.4505804 128.9925,28.2841268 L127.0249,26.2559258 C126.8609,26.0898742 126.7685,25.8625082 126.7699,25.6285082 L126.7699,14.4789309 C126.7685,14.2449309 126.8609,14.017766 127.0249,13.8517144 L128.9925,11.8235134 Z" id="Fill-4" fill="#AEB0B2"></path>
                <path d="M155.15812,29.4283546 C155.15812,28.9456794 154.76592,28.5510557 154.28512,28.5510557 L148.86912,28.5510557 C148.63652,28.5498495 148.41152,28.4549629 148.24792,28.2883082 L146.09552,26.0391742 C145.93192,25.8731227 145.83932,25.6461588 145.84112,25.4119577 L145.84112,12.439432 C145.84112,11.9563546 146.23392,11.5617309 146.71432,11.5617309 L154.09552,11.5617309 C154.29592,11.5617309 154.45852,11.3982928 154.45852,11.1968598 C154.45852,11.0937309 154.41612,11.0004526 154.34752,10.9341124 L151.08832,7.65228247 C150.92292,7.48763814 150.69672,7.39456082 150.46412,7.3963701 L146.71392,7.3963701 C146.23352,7.3963701 145.84072,7.00154536 145.84072,6.51866907 L145.84112,4.09885979 C145.84112,3.61598351 145.44832,3.22135979 144.96792,3.22135979 L142.48012,3.22135979 C141.99952,3.22135979 141.6069,3.61598351 141.6069,4.09885979 L141.6069,27.1315763 C141.60532,27.3657773 141.69752,27.5927412 141.86172,27.7587928 L146.43632,32.4516588 C146.59992,32.6183134 146.82492,32.7132 147.05752,32.7142052 L154.28532,32.7142052 C154.76592,32.7142052 155.15852,32.3197825 155.15852,31.8365041 L155.15812,29.4283546 Z" id="Fill-6" fill="#AEB0B2"></path>
                <path d="M120.13526,12.7813655 C120.13666,12.5471644 120.04406,12.3202005 119.88046,12.1539479 L115.44846,7.65085515 C115.28506,7.48420052 115.05966,7.38931392 114.82726,7.38830876 L105.25026,7.38830876 C105.01766,7.38931392 104.79266,7.48420052 104.62926,7.65085515 L100.19286,12.1583706 C100.02906,12.3244222 99.93666,12.5513861 99.9382396,12.7855871 L99.9382396,27.3179119 C99.93666,27.5521129 100.02906,27.7790768 100.19286,27.9451284 L104.62486,32.4516387 C104.78866,32.6182933 105.01366,32.7131799 105.24626,32.7141851 L117.14686,32.7141851 C117.62726,32.7141851 118.01986,32.3197624 118.01986,31.836484 L118.01986,29.424917 C118.01986,28.9418397 117.62766,28.5470149 117.14666,28.5470149 L107.04566,28.5470149 C106.81286,28.5460098 106.58786,28.4513242 106.42406,28.2846696 L104.42806,26.2474222 C104.26446,26.0813706 104.17186,25.8542057 104.17346,25.6200046 L104.17346,14.4830923 C104.17186,14.2488912 104.26446,14.0217263 104.42806,13.8558758 L106.43226,11.8172211 C106.59586,11.6505665 106.82106,11.5556799 107.05386,11.5546747 L113.02406,11.5546747 C113.25646,11.5556799 113.48166,11.6505665 113.64546,11.8172211 L115.64506,13.8558758 C115.80866,14.0217263 115.90146,14.2488912 115.89946,14.4830923 L115.89946,16.9784892 C115.89946,17.4615665 115.50686,17.8561902 115.02666,17.8561902 L105.10306,17.8561902 C104.90266,17.8561902 104.74026,18.0232469 104.74026,18.2248809 C104.74026,18.3280098 104.78266,18.4210871 104.85106,18.4874273 L107.99646,21.6532624 C108.15966,21.819716 108.38506,21.9148036 108.61766,21.9158088 L119.27386,21.9158088 C119.75426,21.9158088 120.14726,21.5211851 120.14726,21.0379067 L120.13526,12.7813655 Z" id="Fill-8" fill="#AEB0B2"></path>
                <g id="Group-12" transform="translate(77.200000, 7.349691)">
                    <mask id="mask-4" fill="white">
                        <use xlink:href="#path-3"></use>
                    </mask>
                    <g id="Clip-11"></g>
                    <path d="M19.9462,4.81189639 L15.5144,0.321870619 C15.3506,0.155215979 15.1256,0.0603293814 14.8928,0.0595252577 L0.8872,0.0599273196 C0.4064,0.0599273196 0.0138,0.454551031 0.0138,0.937628351 L0.0138,30.6819634 C0.0138,31.1650407 0.4066,31.5596644 0.8874,31.5596644 L3.389,31.5618758 C3.8694,31.5618758 4.2622,31.167051 4.2622,30.6841747 L4.2572,5.09253557 C4.2572,4.60965928 4.6498,4.21483454 5.1302,4.21483454 L13.0898,4.21483454 C13.3224,4.21604072 13.5474,4.31072629 13.711,4.47738093 L15.7124,6.51784485 C15.876,6.68389639 15.9686,6.91086031 15.967,7.14506134 L15.967,18.2751387 C15.9686,18.5091387 15.876,18.7363036 15.7124,18.9023552 L13.711,20.9404067 C13.5474,21.1070613 13.3222,21.2017469 13.0898,21.2027521 L5.1738,21.2027521 C4.9732,21.2027521 4.8108,21.3659892 4.8108,21.5676232 C4.8108,21.670551 4.8534,21.7638294 4.9218,21.8303706 L8.1772,25.1031541 C8.341,25.2700098 8.566,25.3646954 8.7988,25.3657005 L14.8928,25.3657005 C15.1256,25.3646954 15.3506,25.2700098 15.5144,25.1031541 L19.9458,20.6000613 C20.1098,20.4340098 20.2022,20.2068448 20.2006258,19.9726438 L20.2006258,5.43911289 C20.2024,5.20511289 20.11,4.97794794 19.9462,4.81189639" id="Fill-10" fill="#AEB0B2" mask="url(#mask-4)"></path>
                </g>
                <path d="M74.96886,26.4020954 L62.39606,13.7675026 C62.05646,13.4261521 62.05646,12.8678892 62.39626,12.5263376 L63.09866,11.8225284 C63.26226,11.6558737 63.48746,11.5609871 63.72006,11.559982 L73.54606,11.5617912 C74.02646,11.5617912 74.41906,11.1671675 74.41906,10.6838892 L74.41926,8.27312629 C74.41926,7.79004897 74.02666,7.39542526 73.54606,7.39542526 L61.91686,7.39542526 C61.68406,7.39643041 61.45906,7.49131701 61.29546,7.65797165 L56.49306,12.5174923 C56.15306,12.8594459 56.15306,13.4173067 56.49306,13.7588582 L69.06566,26.3948582 C69.40566,26.7362088 69.40566,27.2942706 69.06566,27.6360232 L68.40826,28.2958067 C68.24466,28.4622603 68.01946,28.5573479 67.78686,28.5583531 L57.37126,28.5563428 C56.89086,28.5563428 56.49806,28.9507655 56.49806,29.4340438 L56.49806,31.8429974 C56.49806,32.3260747 56.89066,32.7208995 57.37126,32.7208995 L69.55646,32.7208995 C69.78906,32.7198943 70.01426,32.6250077 70.17786,32.4583531 L74.96886,27.6434613 C75.30886,27.3015077 75.30886,26.7434459 74.96886,26.4020954" id="Fill-13" fill="#AEB0B2"></path>
                <path d="M57.4547,7.39544536 L49.1375,7.39544536 C48.9049,7.39645052 48.6797,7.49133711 48.5161,7.65799175 L44.0801,12.2111412 C43.9163,12.3769918 43.8239,12.6041567 43.8254796,12.8383577 L43.8254796,31.8430175 C43.8254796,32.3260948 44.2181,32.7209196 44.6987,32.7209196 L47.1905,32.7209196 C47.6711,32.7209196 48.0637,32.3264969 48.0637,31.8430175 L48.0637,14.5650124 C48.0623,14.3308113 48.1547,14.1038474 48.3185,13.9375948 L50.3361,11.826368 C50.4997,11.6597134 50.7247,11.5648268 50.9573,11.5638216 L53.8263,11.5638216 C54.0589,11.5628165 54.2841,11.4679299 54.4477,11.3012753 L57.7067,8.02306392 C57.7751,7.95672371 57.8177,7.86344536 57.8177,7.76031649 C57.8177,7.55868247 57.6553,7.39544536 57.4547,7.39544536" id="Fill-15" fill="#AEB0B2"></path>
                <path d="M40.26682,12.1611851 L35.83082,7.65809227 C35.66722,7.4912366 35.44222,7.39635 35.20942,7.39534485 L23.02002,7.39534485 C22.53982,7.39534485 22.14702,7.78996856 22.14702,8.27324691 L22.14702,10.6834067 C22.14702,11.166484 22.53962,11.5613088 23.02022,11.5613088 L33.37102,11.5613088 C33.60382,11.5623139 33.82902,11.6572005 33.99242,11.8236541 L36.03182,13.8713552 C36.19562,14.0374067 36.28802,14.2643706 36.28662,14.4985716 L36.28662,16.9348655 C36.28662,17.4179428 35.89382,17.8125665 35.41322,17.8125665 L25.54102,17.8125665 C25.30842,17.8135716 25.08322,17.9084582 24.91962,18.0749119 L20.49182,22.5782057 C20.32802,22.7442572 20.23562,22.9714222 20.2371996,23.2054222 L20.2371996,27.3279634 C20.23562,27.5619634 20.32802,27.7891284 20.49182,27.9551799 L24.91962,32.4582727 C25.08322,32.6249273 25.30842,32.7198139 25.54102,32.7208191 L31.74642,32.7208191 C31.97922,32.7198139 32.20422,32.6249273 32.36782,32.4582727 L35.63082,29.1824737 C35.69922,29.1159325 35.74182,29.0228552 35.74182,28.9199273 C35.74182,28.7180923 35.57942,28.5550562 35.37902,28.5550562 L27.38522,28.5550562 C27.15262,28.55385 26.92742,28.4591644 26.76382,28.2925098 L24.72602,26.2450098 C24.56222,26.0789582 24.46982,25.8519943 24.47142,25.6177933 L24.47142,24.8989067 C24.46982,24.6649067 24.56222,24.4377418 24.72602,24.2716902 L26.78482,22.1477985 C26.94842,21.9813448 27.17342,21.8862572 27.40622,21.8854531 L35.41322,21.8854531 C35.89402,21.8854531 36.28662,22.2800768 36.28662,22.7631541 L36.28662,31.843118 C36.28662,32.3259943 36.67902,32.7208191 37.15962,32.7208191 L39.64822,32.7208191 C40.12882,32.7208191 40.5214458,32.3263964 40.5214458,31.843118 L40.5214458,12.7884015 C40.52322,12.5542005 40.43062,12.3272366 40.26682,12.1611851" id="Fill-17" fill="#AEB0B2"></path>
                <g id="Group-21" transform="translate(0.000000, 3.128041)">
                    <mask id="mask-6" fill="white">
                        <use xlink:href="#path-5"></use>
                    </mask>
                    <g id="Clip-20"></g>
                    <path d="M18.02696,25.4366041 L7.06976,25.4366041 C6.83716,25.4353979 6.61196,25.3405113 6.44836,25.1738567 L4.48616,23.1468619 C4.32256,22.9808103 4.23016,22.7536454 4.23156,22.5196454 L4.23156,7.17515567 C4.23016,6.94095464 4.32256,6.71399072 4.48616,6.54793918 L6.44836,4.51611959 C6.61196,4.34946495 6.83716,4.25457835 7.06976,4.2535732 L17.65676,4.25578454 C18.13716,4.25578454 18.52996,3.86116082 18.52996,3.37788247 L18.52996,0.970537113 C18.52996,0.487660825 18.13736,0.0928360825 17.65656,0.0928360825 L5.25836,0.0928360825 C5.02576,0.0938412371 4.80056,0.188727835 4.63696,0.355181443 L0.25476,4.85445464 C0.09076,5.02050619 -0.00164,5.2474701 -6.04393611e-05,5.48167113 L-6.04393611e-05,24.2089082 C-0.00164,24.4431093 0.09076,24.6700732 0.25476,24.8361247 L4.63696,29.3351969 C4.80056,29.5018515 5.02576,29.5969392 5.25836,29.5977433 L18.02696,29.5977433 C18.50736,29.5977433 18.90036,29.2031196 18.90036,28.7200423 L18.90036,26.3141041 C18.90036,25.8312278 18.50756,25.4366041 18.02696,25.4366041" id="Fill-19" fill="#AEB0B2" mask="url(#mask-6)"></path>
                </g>
            </g>
        </g>
    </g>
</svg>